<?xml version="1.0" encoding="UTF-8" standalone="no"?>
<!-- Created with Inkscape (http://www.inkscape.org/) -->

<svg
   xmlns:dc="http://purl.org/dc/elements/1.1/"
   xmlns:cc="http://creativecommons.org/ns#"
   xmlns:rdf="http://www.w3.org/1999/02/22-rdf-syntax-ns#"
   xmlns:svg="http://www.w3.org/2000/svg"
   xmlns="http://www.w3.org/2000/svg"
   xmlns:sodipodi="http://sodipodi.sourceforge.net/DTD/sodipodi-0.dtd"
   xmlns:inkscape="http://www.inkscape.org/namespaces/inkscape"
   version="1.0"
   width="24"
   height="24"
   id="svg3197"
   inkscape:version="0.48.4 r9939"
   sodipodi:docname="indicator-messages-new.svg">
  <sodipodi:namedview
     pagecolor="#dedede"
     bordercolor="#666666"
     borderopacity="1"
     objecttolerance="10"
     gridtolerance="10"
     guidetolerance="10"
     inkscape:pageopacity="1"
     inkscape:pageshadow="2"
     inkscape:window-width="1440"
     inkscape:window-height="845"
     id="namedview12"
     showgrid="true"
     inkscape:zoom="14.142136"
     inkscape:cx="16.958696"
     inkscape:cy="8.0704306"
     inkscape:window-x="0"
     inkscape:window-y="30"
     inkscape:window-maximized="1"
     inkscape:current-layer="svg3197"
     inkscape:snap-object-midpoints="true">
    <inkscape:grid
       type="xygrid"
       id="grid2987"
       empspacing="5"
       visible="true"
       enabled="true"
       snapvisiblegridlinesonly="true" />
  </sodipodi:namedview>
  <metadata
     id="metadata12">
    <rdf:RDF>
      <cc:Work
         rdf:about="">
        <dc:format>image/svg+xml</dc:format>
        <dc:type
           rdf:resource="http://purl.org/dc/dcmitype/StillImage" />
      </cc:Work>
    </rdf:RDF>
  </metadata>
  <defs
     id="defs3199" />
  <path
     style="opacity:0.98000004;fill:#ffffff;fill-opacity:1;fill-rule:nonzero;stroke:none;stroke-width:1;marker:none;visibility:visible;display:inline;overflow:visible;enable-background:accumulate"
     d="M 4 6 C 3.446 6 3 6.4806246 3 7 L 3 17 C 3 17.519374 3.446 18 4 18 L 20 18 C 20.554001 18 21 17.519374 21 17 L 21 10.875 A 4 4 0 0 1 17.625 10.21875 L 15.75 12 L 18.84375 14.96875 L 18.15625 15.59375 L 15 12.65625 L 12.71875 14.8125 L 11.28125 14.8125 L 9 12.65625 L 5.84375 15.625 L 5.15625 14.96875 L 8.28125 12 L 4.15625 8.09375 L 4.84375 7.46875 L 11.6875 13.875 L 12.28125 13.875 L 16.9375 9.5625 A 4 4 0 0 1 16 7 A 4 4 0 0 1 16.15625 6 L 4 6 z "
     id="rect3170-7" />
  <path
     d="m 22.999999,7.0024495 a 3,3 0 0 1 -5.999998,0 3,3 0 1 1 5.999998,0 z"
     inkscape:connector-curvature="0"
     id="path3009"
     style="color:#000000;fill:#009dff;fill-opacity:1;fill-rule:nonzero;stroke:none;stroke-width:1;marker:none;visibility:visible;display:inline;overflow:visible;enable-background:accumulate" />
</svg>
