<?xml version="1.0" encoding="UTF-8" standalone="no"?>
<!-- Created with Inkscape (http://www.inkscape.org/) -->

<svg
   xmlns:dc="http://purl.org/dc/elements/1.1/"
   xmlns:cc="http://creativecommons.org/ns#"
   xmlns:rdf="http://www.w3.org/1999/02/22-rdf-syntax-ns#"
   xmlns:svg="http://www.w3.org/2000/svg"
   xmlns="http://www.w3.org/2000/svg"
   xmlns:sodipodi="http://sodipodi.sourceforge.net/DTD/sodipodi-0.dtd"
   xmlns:inkscape="http://www.inkscape.org/namespaces/inkscape"
   version="1.0"
   width="24"
   height="24"
   id="svg3197"
   inkscape:version="0.48.4 r9939"
   sodipodi:docname="indicator-messages.svg">
  <sodipodi:namedview
     pagecolor="#dedede"
     bordercolor="#666666"
     borderopacity="1"
     objecttolerance="10"
     gridtolerance="10"
     guidetolerance="10"
     inkscape:pageopacity="1"
     inkscape:pageshadow="2"
     inkscape:window-width="1440"
     inkscape:window-height="845"
     id="namedview12"
     showgrid="true"
     inkscape:zoom="20"
     inkscape:cx="14.003139"
     inkscape:cy="10.542991"
     inkscape:window-x="0"
     inkscape:window-y="30"
     inkscape:window-maximized="1"
     inkscape:current-layer="svg3197">
    <inkscape:grid
       type="xygrid"
       id="grid2987"
       empspacing="5"
       visible="true"
       enabled="true"
       snapvisiblegridlinesonly="true" />
  </sodipodi:namedview>
  <metadata
     id="metadata12">
    <rdf:RDF>
      <cc:Work
         rdf:about="">
        <dc:format>image/svg+xml</dc:format>
        <dc:type
           rdf:resource="http://purl.org/dc/dcmitype/StillImage" />
      </cc:Work>
    </rdf:RDF>
  </metadata>
  <defs
     id="defs3199" />
  <path
     d="M 4,6 C 3.446,6 3,6.4806246 3,7 l 0,10 c 0,0.519374 0.446,1 1,1 l 16,0 c 0.554001,0 1,-0.480626 1,-1 L 21,7 C 21,6.4806246 20.554001,6 20,6 z M 4.84375,7.4589848 11.6875,13.875 l 0.59375,0 6.875,-6.4160152 0.6875,0.6445304 L 15.75,12 18.84375,14.958984 18.15625,15.603516 15,12.644532 12.71875,14.8125 l -1.4375,0 L 9,12.644532 5.84375,15.632813 5.15625,14.958984 8.28125,12 4.15625,8.1035152 z"
     inkscape:connector-curvature="0"
     id="rect3170-7"
     style="opacity:0.98000004;fill:#ffffff;fill-opacity:1;fill-rule:nonzero;stroke:none;stroke-width:1;marker:none;visibility:visible;display:inline;overflow:visible;enable-background:accumulate"
     sodipodi:nodetypes="sssssssssccccccccccccccccc" />
</svg>
