<?xml version="1.0" encoding="UTF-8" standalone="no"?>
<!-- Generator: Adobe Illustrator 13.0.0, SVG Export Plug-In . SVG Version: 6.00 Build 14576)  -->

<svg
   xmlns:dc="http://purl.org/dc/elements/1.1/"
   xmlns:cc="http://creativecommons.org/ns#"
   xmlns:rdf="http://www.w3.org/1999/02/22-rdf-syntax-ns#"
   xmlns:svg="http://www.w3.org/2000/svg"
   xmlns="http://www.w3.org/2000/svg"
   xmlns:sodipodi="http://sodipodi.sourceforge.net/DTD/sodipodi-0.dtd"
   xmlns:inkscape="http://www.inkscape.org/namespaces/inkscape"
   xml:space="preserve"
   height="24"
   width="24"
   version="1.1"
   y="0px"
   x="0px"
   viewBox="0 0 23.999999 24"
   enable-background="new 0 0 47.998 48"
   id="svg2"
   inkscape:version="0.48.4 r9939"
   sodipodi:docname="notification-display-brightness-full.svg"><metadata
     id="metadata26"><rdf:RDF><cc:Work
         rdf:about=""><dc:format>image/svg+xml</dc:format><dc:type
           rdf:resource="http://purl.org/dc/dcmitype/StillImage" /></cc:Work></rdf:RDF></metadata><defs
     id="defs24" /><sodipodi:namedview
     pagecolor="#000000"
     bordercolor="#666666"
     borderopacity="1"
     objecttolerance="10"
     gridtolerance="10"
     guidetolerance="10"
     inkscape:pageopacity="0.34901961"
     inkscape:pageshadow="2"
     inkscape:window-width="1440"
     inkscape:window-height="847"
     id="namedview22"
     showgrid="true"
     inkscape:zoom="11.313709"
     inkscape:cx="21.999264"
     inkscape:cy="8.2452099"
     inkscape:window-x="0"
     inkscape:window-y="30"
     inkscape:window-maximized="1"
     inkscape:current-layer="svg2"><inkscape:grid
       type="xygrid"
       id="grid3003"
       empspacing="4"
       visible="true"
       enabled="true"
       snapvisiblegridlinesonly="true" /></sodipodi:namedview><g
     id="Layer_1"
     transform="matrix(0.3636281,0,0,0.3636281,3.2734705,3.2729256)"
     style="fill:#ffffff;fill-opacity:1"><linearGradient
       id="SVGID_1_"
       y2="2.0005"
       gradientUnits="userSpaceOnUse"
       x2="23.999001"
       y1="46"
       x1="23.999001"><stop
         style="stop-color:#9B9B9B"
         offset="0"
         id="stop11" /><stop
         style="stop-color:#ECECEC"
         offset="1"
         id="stop13" /></linearGradient><path
       d="m 23.999,14.315 c -5.346,0 -9.679,4.336 -9.679,9.685 0,5.349 4.333,9.686 9.679,9.686 5.346,0 9.679,-4.337 9.679,-9.686 0,-5.349 -4.333,-9.685 -9.679,-9.685 z M 11.723,25.814 c 0.516,-0.516 0.769,-1.113 0.769,-1.783 0,-0.679 -0.253,-1.268 -0.769,-1.783 C 11.225,21.741 10.628,21.497 9.95,21.497 H 4.54 c -0.679,0 -1.267,0.245 -1.782,0.751 -0.506,0.516 -0.76,1.104 -0.76,1.783 0,0.669 0.253,1.267 0.76,1.783 0.516,0.507 1.104,0.752 1.782,0.752 h 5.41 c 0.678,0 1.276,-0.245 1.773,-0.752 z m 0.547,-9.943 c 0.48,0.48 1.075,0.73 1.785,0.724 0.729,0 1.331,-0.244 1.804,-0.717 0.48,-0.48 0.716,-1.076 0.716,-1.805 0.006,-0.711 -0.243,-1.306 -0.723,-1.786 L 12.027,8.459 C 11.548,7.979 10.959,7.736 10.236,7.729 9.513,7.735 8.918,7.973 8.438,8.453 7.965,8.927 7.722,9.528 7.715,10.251 c 0.006,0.723 0.25,1.312 0.729,1.792 l 3.826,3.828 z m 21.667,0.699 c 0.71,-0.006 1.311,-0.25 1.784,-0.724 l 3.831,-3.833 c 0.48,-0.48 0.717,-1.076 0.729,-1.792 C 40.275,9.498 40.032,8.909 39.552,8.429 39.073,7.949 38.485,7.705 37.761,7.699 37.045,7.712 36.444,7.943 35.964,8.422 l -3.832,3.834 c -0.473,0.474 -0.71,1.082 -0.716,1.792 0.006,0.724 0.243,1.319 0.723,1.799 0.48,0.48 1.074,0.716 1.798,0.723 z m -9.955,-4.079 c 0.678,0 1.266,-0.253 1.782,-0.76 0.498,-0.507 0.751,-1.104 0.751,-1.774 V 4.534 C 26.515,3.855 26.262,3.267 25.764,2.751 25.248,2.244 24.66,2 23.982,2 23.304,2 22.715,2.244 22.2,2.751 21.702,3.267 21.44,3.855 21.44,4.534 v 5.422 c 0,0.67 0.262,1.268 0.76,1.774 0.515,0.507 1.104,0.761 1.782,0.761 z M 35.72,32.153 c -0.479,-0.479 -1.081,-0.71 -1.798,-0.71 -0.723,-0.006 -1.317,0.243 -1.791,0.717 -0.479,0.479 -0.729,1.075 -0.723,1.798 0,0.718 0.236,1.312 0.717,1.792 l 3.831,3.835 c 0.48,0.479 1.075,0.716 1.791,0.716 0.723,0.007 1.324,-0.236 1.804,-0.716 0.474,-0.474 0.717,-1.076 0.71,-1.799 0,-0.717 -0.229,-1.318 -0.71,-1.799 L 35.72,32.153 z m 9.509,-9.895 c -0.507,-0.507 -1.095,-0.77 -1.772,-0.77 h -5.419 c -0.679,0 -1.267,0.262 -1.773,0.77 -0.516,0.506 -0.76,1.104 -0.76,1.774 0,0.678 0.244,1.277 0.76,1.783 0.507,0.507 1.095,0.761 1.773,0.761 h 5.419 c 0.678,0 1.266,-0.254 1.772,-0.761 0.516,-0.506 0.77,-1.104 0.77,-1.783 0,-0.67 -0.254,-1.268 -0.77,-1.774 z m -31.154,9.141 c -0.71,-0.006 -1.311,0.237 -1.791,0.717 l -3.825,3.828 c -0.48,0.479 -0.717,1.074 -0.723,1.798 0,0.717 0.243,1.319 0.723,1.799 0.473,0.474 1.074,0.717 1.791,0.717 0.723,-0.007 1.317,-0.243 1.797,-0.724 l 3.825,-3.827 c 0.479,-0.48 0.723,-1.081 0.716,-1.792 0.006,-0.724 -0.237,-1.325 -0.71,-1.799 -0.479,-0.479 -1.08,-0.722 -1.803,-0.717 z m 9.907,4.101 c -0.678,0 -1.275,0.253 -1.782,0.77 -0.506,0.498 -0.76,1.096 -0.76,1.774 v 5.412 c 0,0.68 0.253,1.268 0.76,1.784 0.507,0.507 1.104,0.76 1.782,0.76 0.669,0 1.266,-0.253 1.773,-0.76 0.507,-0.517 0.76,-1.104 0.76,-1.784 v -5.412 c 0,-0.679 -0.253,-1.276 -0.76,-1.774 -0.507,-0.517 -1.104,-0.77 -1.773,-0.77 z"
       id="path15"
       inkscape:connector-curvature="0"
       style="fill:#ffffff;fill-opacity:1" /></g></svg>